<?xml version="1.0" encoding="utf-8"?>
<svg viewBox="0 0 281 79" xmlns="http://www.w3.org/2000/svg">
  <text style="fill: rgb(0, 0, 0); font-family: Poppins; font-size: 72px; font-style: italic; font-weight: 700; white-space: pre;" y="78" x="0">card</text>
  <path d="M 194.008 18.48 C 191.896 18.48 190.2 17.872 188.92 16.656 C 187.64 15.44 187 13.904 187 12.048 C 187 9.488 187.976 7.296 189.928 5.472 C 191.88 3.648 194.168 2.736 196.792 2.736 C 198.84 2.736 200.504 3.344 201.784 4.56 C 203.064 5.776 203.704 7.312 203.704 9.168 C 203.704 11.728 202.744 13.92 200.824 15.744 C 198.904 17.568 196.632 18.48 194.008 18.48 Z M 199.576 24.816 L 195.563 47.5 L 182.027 47.5 L 186.04 24.816 L 199.576 24.816 Z M 190.168 78 L 176.632 78 L 179.738 60.444 C 180.019 60.481 180.306 60.5 180.598 60.5 L 193.264 60.5 L 190.168 78 Z M 215.078 76.08 C 211.59 74.224 208.886 71.6 206.966 68.208 C 205.648 65.88 204.783 63.311 204.369 60.5 L 218.744 60.5 C 219.248 61.979 220.01 63.236 221.03 64.272 C 221.452 64.7 221.901 65.084 222.377 65.423 L 220.576 75.531 L 220.131 78.028 C 218.339 77.568 216.654 76.919 215.078 76.08 Z M 208.358 40.032 C 211.206 35.072 215.11 31.152 220.07 28.272 C 221.735 27.305 223.464 26.5 225.255 25.858 L 217.839 47.5 L 205.252 47.5 C 205.962 44.89 206.998 42.401 208.358 40.032 Z M 248.774 26.784 C 252.326 28.672 255.078 31.312 257.03 34.704 C 258.982 38.096 259.958 42 259.958 46.416 C 259.958 46.779 259.953 47.141 259.943 47.5 L 246.038 47.5 C 246.038 47.491 246.038 47.481 246.038 47.472 C 246.038 43.632 244.966 40.672 242.822 38.592 C 242.154 37.944 241.432 37.397 240.655 36.951 L 242.855 24.61 C 244.961 25.081 246.934 25.806 248.774 26.784 Z M 255.638 62.928 C 252.758 67.856 248.806 71.744 243.782 74.592 C 240.566 76.415 237.134 77.654 233.486 78.311 L 243.217 60.5 L 256.918 60.5 C 256.529 61.324 256.102 62.134 255.638 62.928 Z M 221.271 73.554 L 224.991 66.745 C 224.991 66.745 224.991 66.745 224.991 66.745 L 221.271 73.554 Z" style="fill: rgb(0, 0, 0); white-space: pre;"/>
  <path style="fill: none; stroke-linejoin: round; stroke-linecap: square; stroke: rgb(0, 0, 0); stroke-width: 4px;" d="M 272 54 L 239.362 54 L 226.975 76.671 L 239.7253852 5.122 L 222.483 54 L 182.483 54"/>
</svg>