<?xml version="1.0" encoding="utf-8"?>
<svg viewBox="0 0 287 101" xmlns="http://www.w3.org/2000/svg">
  <text style="fill: rgb(0, 0, 0); font-family: Poppins; font-size: 72px; font-style: italic; font-weight: 700; white-space: pre;" y="88" x="0">card</text>
  <path d="M 274 0 C 281.18 0 287 5.82 287 13 L 287 88 C 287 95.18 281.18 101 274 101 L 173.12 101 L 191 0 L 274 0 Z" style="fill: rgb(0, 0, 0);"/>
  <path d="M 207.008 28.48 C 204.896 28.48 203.2 27.872 201.92 26.656 C 200.64 25.44 200 23.904 200 22.048 C 200 19.488 200.976 17.296 202.928 15.472 C 204.88 13.648 207.168 12.736 209.792 12.736 C 211.84 12.736 213.504 13.344 214.784 14.56 C 216.064 15.776 216.704 17.312 216.704 19.168 C 216.704 21.728 215.744 23.92 213.824 25.744 C 211.904 27.568 209.632 28.48 207.008 28.48 Z M 212.576 34.816 L 208.563 57.5 L 195.027 57.5 L 199.04 34.816 L 212.576 34.816 Z M 203.168 88 L 189.632 88 L 192.738 70.444 C 193.019 70.481 193.306 70.5 193.598 70.5 L 206.264 70.5 L 203.168 88 Z M 228.078 86.08 C 224.59 84.224 221.886 81.6 219.966 78.208 C 218.648 75.88 217.783 73.311 217.369 70.5 L 231.744 70.5 C 232.248 71.979 233.01 73.236 234.03 74.272 C 234.452 74.7 234.901 75.084 235.377 75.423 L 233.576 85.531 L 233.131 88.028 C 231.339 87.568 229.654 86.919 228.078 86.08 Z M 221.358 50.032 C 224.206 45.072 228.11 41.152 233.07 38.272 C 234.735 37.305 236.464 36.5 238.255 35.858 L 230.839 57.5 L 218.252 57.5 C 218.962 54.89 219.998 52.401 221.358 50.032 Z M 261.774 36.784 C 265.326 38.672 268.078 41.312 270.03 44.704 C 271.982 48.096 272.958 52 272.958 56.416 C 272.958 56.779 272.953 57.141 272.943 57.5 L 259.038 57.5 C 259.038 57.491 259.038 57.481 259.038 57.472 C 259.038 53.632 257.966 50.672 255.822 48.592 C 255.154 47.944 254.432 47.397 253.655 46.951 L 255.855 34.61 C 257.961 35.081 259.934 35.806 261.774 36.784 Z M 268.638 72.928 C 265.758 77.856 261.806 81.744 256.782 84.592 C 253.566 86.415 250.134 87.654 246.486 88.311 L 256.217 70.5 L 269.918 70.5 C 269.529 71.324 269.102 72.134 268.638 72.928 Z M 234.271 83.554 L 237.991 76.745 C 237.991 76.745 237.991 76.745 237.991 76.745 L 234.271 83.554 Z" style="fill: rgb(255, 255, 255); white-space: pre;"/>
  <path style="fill: none; stroke-linejoin: round; stroke-linecap: square; stroke: rgb(255, 255, 255); stroke-width: 4px;" d="M 285 64 L 252.362 64 L 239.975 86.671 L 252.725 15.122 L 235.483 64 L 195.483 64"/>
</svg>