<?xml version="1.0" encoding="utf-8"?>
<svg viewBox="0 0 287 101" xmlns="http://www.w3.org/2000/svg">
  <text style="fill: rgb(0, 0, 0); font-family: Poppins; font-size: 72px; font-style: italic; font-weight: 700; white-space: pre;" y="88" x="0">card</text>
  <path d="M 274 0 C 281.18 0 287 5.82 287 13 L 287 62 L 251.176 62 L 250.607 63.041 L 244.093 74.963 L 254.694 15.473 L 250.839 14.457 L 234.068 62 L 194 62 L 193.3 66 L 236.898 66 L 237.369 64.665 L 246.455 38.91 L 238.006 86.32 L 235.857 98.379 L 241.73 87.63 L 253.548 66 L 287 66 L 287 88 C 287 95.18 281.18 101 274 101 L 173.12 101 L 191 0 Z M 213.824 25.744 C 215.744 23.92 216.704 21.728 216.704 19.168 C 216.704 17.312 216.064 15.776 214.784 14.56 C 213.504 13.344 211.84 12.736 209.792 12.736 C 207.168 12.736 204.88 13.648 202.928 15.472 C 200.976 17.296 200 19.488 200 22.048 C 200 23.904 200.64 25.44 201.92 26.656 C 203.2 27.872 204.896 28.48 207.008 28.48 C 209.632 28.48 211.904 27.568 213.824 25.744 Z M 199.04 34.816 L 195.027 57.5 L 208.563 57.5 L 212.576 34.816 Z M 206.264 70.5 L 193.598 70.5 C 193.306 70.5 193.019 70.481 192.738 70.444 L 189.632 88 L 203.168 88 Z M 233.131 88.028 L 233.576 85.531 L 235.377 75.423 C 234.901 75.084 234.452 74.7 234.03 74.272 C 233.01 73.236 232.248 71.979 231.744 70.5 L 217.369 70.5 C 217.783 73.311 218.648 75.88 219.966 78.208 C 221.886 81.6 224.59 84.224 228.078 86.08 C 229.654 86.919 231.339 87.568 233.131 88.028 Z M 218.252 57.5 L 230.839 57.5 L 238.255 35.858 C 236.464 36.5 234.735 37.305 233.07 38.272 C 228.11 41.152 224.206 45.072 221.358 50.032 C 219.998 52.401 218.962 54.89 218.252 57.5 Z M 255.855 34.61 L 253.655 46.951 C 254.432 47.397 255.154 47.944 255.822 48.592 C 257.966 50.672 259.038 53.632 259.038 57.472 C 259.038 57.481 259.038 57.491 259.038 57.5 L 272.943 57.5 C 272.953 57.141 272.958 56.779 272.958 56.416 C 272.958 52 271.982 48.096 270.03 44.704 C 268.078 41.312 265.326 38.672 261.774 36.784 C 259.934 35.806 257.961 35.081 255.855 34.61 Z M 269.918 70.5 L 256.217 70.5 L 246.486 88.311 C 250.134 87.654 253.566 86.415 256.782 84.592 C 261.806 81.744 265.758 77.856 268.638 72.928 C 269.102 72.134 269.529 71.324 269.918 70.5 Z" style="fill: rgb(0, 0, 0);"/>
</svg>