<?xml version="1.0" encoding="utf-8"?>
<svg viewBox="0 0 281 79" xmlns="http://www.w3.org/2000/svg">
  <path d="M 1.944 57.912 Q 3.024 51.648 6.408 46.968 Q 9.792 42.288 14.796 39.768 Q 19.8 37.248 25.704 37.248 Q 33.264 37.248 37.656 41.208 Q 42.048 45.168 42.336 52.368 L 29.232 52.368 Q 28.44 47.76 23.616 47.76 Q 20.232 47.76 17.784 50.388 Q 15.336 53.016 14.472 57.912 Q 14.184 59.424 14.184 61.08 Q 14.184 64.464 15.768 66.264 Q 17.352 68.064 20.088 68.064 Q 24.84 68.064 27.216 63.456 L 40.392 63.456 Q 37.584 70.512 31.752 74.544 Q 25.92 78.576 18.432 78.576 Q 10.656 78.576 6.084 74.292 Q 1.512 70.008 1.512 62.592 Q 1.512 60.36 1.944 57.912 Z M 45.504 57.84 Q 46.584 51.648 49.752 46.968 Q 52.92 42.288 57.384 39.768 Q 61.848 37.248 66.816 37.248 Q 71.064 37.248 73.944 38.976 Q 76.824 40.704 78.12 43.512 L 79.128 37.824 L 91.44 37.824 L 84.312 78 L 72 78 L 73.08 72.312 Q 70.776 75.12 67.248 76.848 Q 63.72 78.576 59.472 78.576 Q 55.224 78.576 51.948 76.632 Q 48.672 74.688 46.872 71.124 Q 45.072 67.56 45.072 62.736 Q 45.072 60.432 45.504 57.84 Z M 75.6 57.912 Q 75.816 56.616 75.816 55.536 Q 75.816 52.008 73.764 49.992 Q 71.712 47.976 68.544 47.976 Q 64.872 47.976 61.848 50.604 Q 58.824 53.232 58.032 57.84 Q 57.816 59.136 57.816 60.216 Q 57.816 63.744 59.868 65.796 Q 61.92 67.848 65.016 67.848 Q 68.688 67.848 71.712 65.184 Q 74.736 62.52 75.6 57.912 Z M 111.312 45.096 Q 114.12 41.496 117.756 39.444 Q 121.392 37.392 125.352 37.392 L 123.048 50.424 L 119.664 50.424 Q 115.056 50.424 112.392 52.404 Q 109.728 54.384 108.864 59.352 L 105.552 78 L 93.24 78 L 100.296 37.824 L 112.608 37.824 L 111.312 45.096 Z M 125.206 57.84 Q 126.286 51.648 129.454 46.968 Q 132.622 42.288 137.086 39.768 Q 141.55 37.248 146.518 37.248 Q 150.478 37.248 153.466 38.904 Q 156.454 40.56 157.822 43.368 L 161.134 24.72 L 173.446 24.72 L 164.014 78 L 151.702 78 L 152.71 72.24 Q 150.406 75.12 146.95 76.848 Q 143.494 78.576 139.246 78.576 Q 134.998 78.576 131.722 76.632 Q 128.446 74.688 126.61 71.088 Q 124.774 67.488 124.774 62.664 Q 124.774 60.432 125.206 57.84 Z M 155.302 57.912 Q 155.518 56.616 155.518 55.536 Q 155.518 52.008 153.466 49.992 Q 151.414 47.976 148.246 47.976 Q 144.574 47.976 141.55 50.604 Q 138.526 53.232 137.734 57.84 Q 137.518 59.136 137.518 60.216 Q 137.518 63.744 139.57 65.796 Q 141.622 67.848 144.718 67.848 Q 148.39 67.848 151.414 65.184 Q 154.438 62.52 155.302 57.912 Z" style="fill: rgb(255, 255, 255); white-space: pre;"/>
  <path d="M 194.008 18.48 C 191.896 18.48 190.2 17.872 188.92 16.656 C 187.64 15.44 187 13.904 187 12.048 C 187 9.488 187.976 7.296 189.928 5.472 C 191.88 3.648 194.168 2.736 196.792 2.736 C 198.84 2.736 200.504 3.344 201.784 4.56 C 203.064 5.776 203.704 7.312 203.704 9.168 C 203.704 11.728 202.744 13.92 200.824 15.744 C 198.904 17.568 196.632 18.48 194.008 18.48 Z M 199.576 24.816 L 195.563 47.5 L 182.027 47.5 L 186.04 24.816 L 199.576 24.816 Z M 190.168 78 L 176.632 78 L 179.738 60.444 C 180.019 60.481 180.306 60.5 180.598 60.5 L 193.264 60.5 L 190.168 78 Z M 215.078 76.08 C 211.59 74.224 208.886 71.6 206.966 68.208 C 205.648 65.88 204.783 63.311 204.369 60.5 L 218.744 60.5 C 219.248 61.979 220.01 63.236 221.03 64.272 C 221.452 64.7 221.901 65.084 222.377 65.423 L 220.576 75.531 L 220.131 78.028 C 218.339 77.568 216.654 76.919 215.078 76.08 Z M 208.358 40.032 C 211.206 35.072 215.11 31.152 220.07 28.272 C 221.735 27.305 223.464 26.5 225.255 25.858 L 217.839 47.5 L 205.252 47.5 C 205.962 44.89 206.998 42.401 208.358 40.032 Z M 248.774 26.784 C 252.326 28.672 255.078 31.312 257.03 34.704 C 258.982 38.096 259.958 42 259.958 46.416 C 259.958 46.779 259.953 47.141 259.943 47.5 L 246.038 47.5 C 246.038 47.491 246.038 47.481 246.038 47.472 C 246.038 43.632 244.966 40.672 242.822 38.592 C 242.154 37.944 241.432 37.397 240.655 36.951 L 242.855 24.61 C 244.961 25.081 246.934 25.806 248.774 26.784 Z M 255.638 62.928 C 252.758 67.856 248.806 71.744 243.782 74.592 C 240.566 76.415 237.134 77.654 233.486 78.311 L 243.217 60.5 L 256.918 60.5 C 256.529 61.324 256.102 62.134 255.638 62.928 Z M 221.271 73.554 L 224.991 66.745 C 224.991 66.745 224.991 66.745 224.991 66.745 L 221.271 73.554 Z" style="fill: rgb(255, 255, 255); white-space: pre;"/>
  <path style="fill: none; stroke-linejoin: round; stroke-linecap: square; stroke: rgb(255, 255, 255); stroke-width: 4px;" d="M 272 54 L 239.362 54 L 226.975 76.671 L 239.7253852 5.122 L 222.483 54 L 182.483 54"/>
</svg>